<svg width="576" height="512" xmlns="http://www.w3.org/2000/svg" aria-hidden="true">

 <g>
  <title>Layer 1</title>
  <path stroke="null" id="svg_1" d="m343.71481,262.92087l-113.60741,0c-62.72076,0 -113.60741,48.16877 -113.60741,107.53957s50.88665,107.53957 113.60741,107.53957l113.60741,0c62.72076,0 113.60741,-48.16877 113.60741,-107.53957s-50.88665,-107.53957 -113.60741,-107.53957zm0,179.23261c-41.89273,0 -75.73827,-32.09384 -75.73827,-71.69305c0,-39.65522 33.90471,-71.69305 75.73827,-71.69305c41.89273,0 75.73827,32.09384 75.73827,71.69305c0,39.65522 -33.90471,71.69305 -75.73827,71.69305z" fill="  #fff"/>
  <path stroke="null" id="svg_2" d="m233.28518,249.07914l113.60741,0c62.72075,0 113.6074,-48.16876 113.6074,-107.53956s-50.88665,-107.53958 -113.6074,-107.53958l-113.60741,0c-62.72075,0 -113.6074,48.16877 -113.6074,107.53958s50.88665,107.53956 113.6074,107.53956zm0,-179.23262c41.89273,0 75.73828,32.09384 75.73828,71.69305c0,39.65521 -33.90471,71.69304 -75.73828,71.69304c-41.89272,0 -75.73827,-32.09384 -75.73827,-71.69304c0,-39.65521 33.90471,-71.69305 75.73827,-71.69305z" fill="#cccccc"/>
 </g>
</svg>