<svg id="visual" viewBox="0 0 900 600" width="900" height="600" xmlns="http://www.w3.org/2000/svg" xmlns:xlink="http://www.w3.org/1999/xlink" version="1.1"><rect x="0" y="0" width="900" height="600" fill="#001220"></rect><path d="M0 315L75 319.8C150 324.7 300 334.3 450 323.5C600 312.7 750 281.3 825 265.7L900 250L900 601L825 601C750 601 600 601 450 601C300 601 150 601 75 601L0 601Z" fill="#fa7268"></path><path d="M0 339L75 336C150 333 300 327 450 331.7C600 336.3 750 351.7 825 359.3L900 367L900 601L825 601C750 601 600 601 450 601C300 601 150 601 75 601L0 601Z" fill="#f56967"></path><path d="M0 403L75 399.7C150 396.3 300 389.7 450 376.5C600 363.3 750 343.7 825 333.8L900 324L900 601L825 601C750 601 600 601 450 601C300 601 150 601 75 601L0 601Z" fill="#ef5f67"></path><path d="M0 369L75 377.8C150 386.7 300 404.3 450 414.3C600 424.3 750 426.7 825 427.8L900 429L900 601L825 601C750 601 600 601 450 601C300 601 150 601 75 601L0 601Z" fill="#e95667"></path><path d="M0 438L75 431C150 424 300 410 450 406.2C600 402.3 750 408.7 825 411.8L900 415L900 601L825 601C750 601 600 601 450 601C300 601 150 601 75 601L0 601Z" fill="#e34c67"></path><path d="M0 433L75 443.8C150 454.7 300 476.3 450 487.2C600 498 750 498 825 498L900 498L900 601L825 601C750 601 600 601 450 601C300 601 150 601 75 601L0 601Z" fill="#dc4267"></path><path d="M0 512L75 509.2C150 506.3 300 500.7 450 499.7C600 498.7 750 502.3 825 504.2L900 506L900 601L825 601C750 601 600 601 450 601C300 601 150 601 75 601L0 601Z" fill="#d53867"></path><path d="M0 537L75 536C150 535 300 533 450 534.2C600 535.3 750 539.7 825 541.8L900 544L900 601L825 601C750 601 600 601 450 601C300 601 150 601 75 601L0 601Z" fill="#ce2e68"></path><path d="M0 540L75 543.5C150 547 300 554 450 555.2C600 556.3 750 551.7 825 549.3L900 547L900 601L825 601C750 601 600 601 450 601C300 601 150 601 75 601L0 601Z" fill="#c62368"></path></svg>